<svg width="16" height="12" viewBox="0 0 16 12" fill="none" xmlns="http://www.w3.org/2000/svg">
<path d="M15.3043 5.30469H0.695641C0.311445 5.30469 0 5.61613 0 6.00033C0 6.38452 0.311445 6.69597 0.695641 6.69597H15.3043C15.6885 6.69597 16 6.38452 16 6.00033C16 5.61613 15.6885 5.30469 15.3043 5.30469Z" fill="white"/>
<path d="M0.695641 1.82585H15.3043C15.6885 1.82585 16 1.51441 16 1.13021C16 0.746016 15.6885 0.43457 15.3043 0.43457H0.695641C0.311445 0.43457 0 0.746016 0 1.13021C0 1.51441 0.311445 1.82585 0.695641 1.82585Z" fill="white"/>
<path d="M15.3043 10.1738H0.695641C0.311445 10.1738 0 10.4853 0 10.8695C0 11.2537 0.311445 11.5652 0.695641 11.5652H15.3043C15.6885 11.5652 16 11.2537 16 10.8695C16 10.4853 15.6885 10.1738 15.3043 10.1738Z" fill="white"/>
</svg>
