<svg width="80" height="80" viewBox="0 0 80 80" fill="none" xmlns="http://www.w3.org/2000/svg">
<rect width="80" height="80" rx="12" fill="#F0F0F0"/>
<path d="M25.2344 44V35.4102H28.4746C29.0449 35.4102 29.4805 35.4375 29.7812 35.4922C30.2031 35.5625 30.5566 35.6973 30.8418 35.8965C31.127 36.0918 31.3555 36.3672 31.5273 36.7227C31.7031 37.0781 31.791 37.4688 31.791 37.8945C31.791 38.625 31.5586 39.2441 31.0938 39.752C30.6289 40.2559 29.7891 40.5078 28.5742 40.5078H26.3711V44H25.2344ZM26.3711 39.4941H28.5918C29.3262 39.4941 29.8477 39.3574 30.1562 39.084C30.4648 38.8105 30.6191 38.4258 30.6191 37.9297C30.6191 37.5703 30.5273 37.2637 30.3438 37.0098C30.1641 36.752 29.9258 36.582 29.6289 36.5C29.4375 36.4492 29.084 36.4238 28.5684 36.4238H26.3711V39.4941ZM33.1035 44V35.4102H34.1582V38.4922C34.6504 37.9219 35.2715 37.6367 36.0215 37.6367C36.4824 37.6367 36.8828 37.7285 37.2227 37.9121C37.5625 38.0918 37.8047 38.3418 37.9492 38.6621C38.0977 38.9824 38.1719 39.4473 38.1719 40.0566V44H37.1172V40.0566C37.1172 39.5293 37.002 39.1465 36.7715 38.9082C36.5449 38.666 36.2227 38.5449 35.8047 38.5449C35.4922 38.5449 35.1973 38.627 34.9199 38.791C34.6465 38.9512 34.4512 39.1699 34.334 39.4473C34.2168 39.7246 34.1582 40.1074 34.1582 40.5957V44H33.1035ZM39.3906 40.8887C39.3906 39.7363 39.7109 38.8828 40.3516 38.3281C40.8867 37.8672 41.5391 37.6367 42.3086 37.6367C43.1641 37.6367 43.8633 37.918 44.4062 38.4805C44.9492 39.0391 45.2207 39.8125 45.2207 40.8008C45.2207 41.6016 45.0996 42.2324 44.8574 42.6934C44.6191 43.1504 44.2695 43.5059 43.8086 43.7598C43.3516 44.0137 42.8516 44.1406 42.3086 44.1406C41.4375 44.1406 40.7324 43.8613 40.1934 43.3027C39.6582 42.7441 39.3906 41.9395 39.3906 40.8887ZM40.4746 40.8887C40.4746 41.6855 40.6484 42.2832 40.9961 42.6816C41.3438 43.0762 41.7812 43.2734 42.3086 43.2734C42.832 43.2734 43.2676 43.0742 43.6152 42.6758C43.9629 42.2773 44.1367 41.6699 44.1367 40.8535C44.1367 40.084 43.9609 39.502 43.6094 39.1074C43.2617 38.709 42.8281 38.5098 42.3086 38.5098C41.7812 38.5098 41.3438 38.707 40.9961 39.1016C40.6484 39.4961 40.4746 40.0918 40.4746 40.8887ZM48.7656 43.0566L48.918 43.9883C48.6211 44.0508 48.3555 44.082 48.1211 44.082C47.7383 44.082 47.4414 44.0215 47.2305 43.9004C47.0195 43.7793 46.8711 43.6211 46.7852 43.4258C46.6992 43.2266 46.6562 42.8105 46.6562 42.1777V38.5977H45.8828V37.7773H46.6562V36.2363L47.7051 35.6035V37.7773H48.7656V38.5977H47.7051V42.2363C47.7051 42.5371 47.7227 42.7305 47.7578 42.8164C47.7969 42.9023 47.8574 42.9707 47.9395 43.0215C48.0254 43.0723 48.1465 43.0977 48.3027 43.0977C48.4199 43.0977 48.5742 43.084 48.7656 43.0566ZM49.4102 40.8887C49.4102 39.7363 49.7305 38.8828 50.3711 38.3281C50.9062 37.8672 51.5586 37.6367 52.3281 37.6367C53.1836 37.6367 53.8828 37.918 54.4258 38.4805C54.9688 39.0391 55.2402 39.8125 55.2402 40.8008C55.2402 41.6016 55.1191 42.2324 54.877 42.6934C54.6387 43.1504 54.2891 43.5059 53.8281 43.7598C53.3711 44.0137 52.8711 44.1406 52.3281 44.1406C51.457 44.1406 50.752 43.8613 50.2129 43.3027C49.6777 42.7441 49.4102 41.9395 49.4102 40.8887ZM50.4941 40.8887C50.4941 41.6855 50.668 42.2832 51.0156 42.6816C51.3633 43.0762 51.8008 43.2734 52.3281 43.2734C52.8516 43.2734 53.2871 43.0742 53.6348 42.6758C53.9824 42.2773 54.1562 41.6699 54.1562 40.8535C54.1562 40.084 53.9805 39.502 53.6289 39.1074C53.2812 38.709 52.8477 38.5098 52.3281 38.5098C51.8008 38.5098 51.3633 38.707 51.0156 39.1016C50.668 39.4961 50.4941 40.0918 50.4941 40.8887Z" fill="#CCCCCC"/>
</svg>
