<svg width="36" height="37" viewBox="0 0 36 37" fill="none" xmlns="http://www.w3.org/2000/svg">
<path d="M18.1393 0.914062H18.0592C8.36906 0.914062 0.513672 8.76945 0.513672 18.4596V18.5397C0.513672 28.2298 8.36906 36.0852 18.0592 36.0852H18.1393C27.8294 36.0852 35.6848 28.2298 35.6848 18.5397V18.4596C35.6848 8.76945 27.8294 0.914062 18.1393 0.914062Z" fill="url(#paint0_linear_2001_894)"/>
<path d="M23.5415 8.06836H12.6586C9.652 8.06836 7.20605 10.5143 7.20605 13.5209V23.4772C7.20605 26.4838 9.652 28.9298 12.6586 28.9298H23.5415C26.5481 28.9298 28.9941 26.4838 28.9941 23.4772V13.5209C28.9941 10.5143 26.5481 8.06836 23.5415 8.06836ZM9.12954 13.5209C9.12954 11.5752 10.7129 9.99185 12.6586 9.99185H23.5415C25.4872 9.99185 27.0706 11.5752 27.0706 13.5209V23.4772C27.0706 25.4229 25.4872 27.0063 23.5415 27.0063H12.6586C10.7129 27.0063 9.12954 25.4229 9.12954 23.4772V13.5209Z" fill="white"/>
<path d="M18.1001 23.5703C20.896 23.5703 23.1719 21.2957 23.1719 18.4986C23.1719 15.7014 20.8972 13.4268 18.1001 13.4268C15.303 13.4268 13.0283 15.7014 13.0283 18.4986C13.0283 21.2957 15.303 23.5703 18.1001 23.5703ZM18.1001 15.3515C19.8363 15.3515 21.2484 16.7636 21.2484 18.4998C21.2484 20.236 19.8363 21.6481 18.1001 21.6481C16.3639 21.6481 14.9518 20.236 14.9518 18.4998C14.9518 16.7636 16.3639 15.3515 18.1001 15.3515Z" fill="white"/>
<path d="M23.638 14.2448C24.3909 14.2448 25.0045 13.6324 25.0045 12.8782C25.0045 12.1241 24.3921 11.5117 23.638 11.5117C22.8839 11.5117 22.2715 12.1241 22.2715 12.8782C22.2715 13.6324 22.8839 14.2448 23.638 14.2448Z" fill="white"/>
<defs>
<linearGradient id="paint0_linear_2001_894" x1="5.65201" y1="30.9468" x2="30.5464" y2="6.05363" gradientUnits="userSpaceOnUse">
<stop stop-color="#FAAD4F"/>
<stop offset="0.35" stop-color="#DD2A7B"/>
<stop offset="0.62" stop-color="#9537B0"/>
<stop offset="1" stop-color="#515BD4"/>
</linearGradient>
</defs>
</svg>
