<svg width="36" height="37" viewBox="0 0 36 37" fill="none" xmlns="http://www.w3.org/2000/svg">
<path d="M17.6256 0.914062H17.5455C7.85538 0.914062 0 8.76945 0 18.4596V18.5397C0 28.2298 7.85538 36.0852 17.5455 36.0852H17.6256C27.3157 36.0852 35.1711 28.2298 35.1711 18.5397V18.4596C35.1711 8.76945 27.3157 0.914062 17.6256 0.914062Z" fill="#00B0F2"/>
<path d="M6.6586 17.8993C6.70789 17.8747 6.7572 17.8512 6.80526 17.8291C7.6407 17.4422 8.48723 17.0799 9.33253 16.7176C9.37812 16.7176 9.4545 16.6646 9.49763 16.6474C9.56293 16.619 9.62825 16.5919 9.69356 16.5636L10.0694 16.4022C10.3208 16.295 10.5709 16.1878 10.8223 16.0806C11.3238 15.8661 11.8253 15.6517 12.3268 15.4361C13.3298 15.0073 14.3341 14.5773 15.3371 14.1484C16.3401 13.7196 17.3444 13.2896 18.3474 12.8608C19.3504 12.432 20.3547 12.0019 21.3577 11.5731C22.3607 11.1443 23.365 10.7143 24.368 10.2854C24.591 10.1893 24.8326 10.0464 25.0716 10.0045C25.2725 9.96877 25.4684 9.89976 25.6704 9.86157C26.0537 9.78887 26.4763 9.75929 26.8435 9.91825C26.9704 9.9737 27.0875 10.0513 27.1848 10.1487C27.6506 10.6095 27.5853 11.3661 27.4867 12.0142C26.8004 16.5315 26.114 21.0501 25.4265 25.5674C25.3328 26.1872 25.2047 26.8674 24.7155 27.2592C24.3015 27.5907 23.7125 27.6276 23.2011 27.4872C22.6897 27.3455 22.2387 27.0485 21.7964 26.7565C19.9616 25.5415 18.1256 24.3265 16.2908 23.1116C15.8546 22.8232 15.3692 22.4462 15.3741 21.9225C15.3765 21.607 15.5651 21.3261 15.7573 21.076C17.3518 18.996 19.6523 17.5666 21.3639 15.5827C21.6054 15.303 21.7951 14.7978 21.4637 14.6364C21.2665 14.5403 21.0398 14.6709 20.8599 14.7954C18.5975 16.3664 16.3364 17.9387 14.0741 19.5098C13.336 20.0224 12.5622 20.5498 11.6725 20.6755C10.8765 20.7888 10.0756 20.567 9.30542 20.3403C8.65974 20.1506 8.01527 19.9559 7.37329 19.755C7.03197 19.649 6.67955 19.5345 6.41586 19.2942C6.15216 19.0539 6.00062 18.6497 6.15958 18.3293C6.25938 18.1285 6.45285 18.0016 6.65616 17.8981L6.6586 17.8993Z" fill="#FEFFFC"/>
</svg>
