<svg width="36" height="37" viewBox="0 0 36 37" fill="none" xmlns="http://www.w3.org/2000/svg">
<path d="M17.7965 0.914062H17.7164C8.02629 0.914062 0.170898 8.76945 0.170898 18.4596V18.5397C0.170898 28.2298 8.02629 36.0852 17.7164 36.0852H17.7965C27.4866 36.0852 35.342 28.2298 35.342 18.5397V18.4596C35.342 8.76945 27.4866 0.914062 17.7965 0.914062Z" fill="black"/>
<path d="M26.6723 14.8839V18.2047C26.0919 18.1481 25.3378 18.0162 24.5036 17.7106C23.4143 17.3114 22.6035 16.7655 22.0724 16.3429V23.0547L22.0589 23.0338C22.0675 23.1669 22.0724 23.3024 22.0724 23.4392C22.0724 26.7723 19.3603 29.4857 16.026 29.4857C12.6916 29.4857 9.97949 26.7723 9.97949 23.4392C9.97949 20.106 12.6916 17.3915 16.026 17.3915C16.3525 17.3915 16.6729 17.4173 16.9859 17.4679V20.7406C16.6852 20.6334 16.3624 20.5755 16.026 20.5755C14.4475 20.5755 13.1623 21.8595 13.1623 23.4392C13.1623 25.0189 14.4475 26.3028 16.026 26.3028C17.6044 26.3028 18.8896 25.0176 18.8896 23.4392C18.8896 23.38 18.8884 23.3209 18.8847 23.2617V10.2188H22.2031C22.2154 10.4997 22.2265 10.7831 22.2388 11.064C22.261 11.6173 22.4581 12.1484 22.8019 12.5834C23.2049 13.0947 23.8 13.6887 24.6355 14.1631C25.4179 14.6067 26.1523 14.7964 26.6723 14.8864V14.8839Z" fill="#FF004F"/>
<path d="M25.5317 12.1881V15.509C24.9513 15.4523 24.1972 15.3204 23.363 15.0148C22.2737 14.6156 21.4629 14.0697 20.9318 13.6471V20.359L20.9183 20.338C20.9269 20.4711 20.9318 20.6066 20.9318 20.7434C20.9318 24.0765 18.2197 26.7899 14.8853 26.7899C11.551 26.7899 8.83887 24.0765 8.83887 20.7434C8.83887 17.4103 11.551 14.6957 14.8853 14.6957C15.2119 14.6957 15.5323 14.7216 15.8452 14.7721V18.0449C15.5446 17.9377 15.2217 17.8797 14.8853 17.8797C13.3069 17.8797 12.0217 19.1637 12.0217 20.7434C12.0217 22.3231 13.3069 23.6071 14.8853 23.6071C16.4638 23.6071 17.749 22.3219 17.749 20.7434C17.749 20.6843 17.7478 20.6251 17.7441 20.566V7.52051H21.0624C21.0747 7.80145 21.0858 8.08486 21.0982 8.36581C21.1203 8.91907 21.3175 9.45016 21.6613 9.88513C22.0642 10.3965 22.6594 10.9904 23.4948 11.4648C24.2773 11.9072 25.0117 12.0982 25.5317 12.1881Z" fill="#00F7EF"/>
<path d="M26.2573 13.6388V16.9596C25.6769 16.9029 24.9228 16.7711 24.0886 16.4655C22.9993 16.0663 22.1885 15.5204 21.6574 15.0977V21.8096L21.6439 21.7887C21.6525 21.9217 21.6574 22.0573 21.6574 22.1941C21.6574 25.5272 18.9453 28.2405 15.6109 28.2405C12.2766 28.2405 9.56445 25.5272 9.56445 22.1941C9.56445 18.8609 12.2766 16.1464 15.6109 16.1464C15.9375 16.1464 16.2578 16.1722 16.5708 16.2228V19.4955C16.2702 19.3883 15.9473 19.3304 15.6109 19.3304C14.0325 19.3304 12.7473 20.6144 12.7473 22.1941C12.7473 23.7738 14.0325 25.0577 15.6109 25.0577C17.1894 25.0577 18.4746 23.7725 18.4746 22.1941C18.4746 22.1349 18.4734 22.0758 18.4697 22.0166V8.97363H21.788C21.8003 9.25458 21.8114 9.53799 21.8238 9.81893C21.8459 10.3722 22.0431 10.9033 22.3869 11.3383C22.7898 11.8496 23.385 12.4435 24.2204 12.918C25.0029 13.3603 25.7373 13.5513 26.2573 13.6413V13.6388Z" fill="white"/>
</svg>
