<svg width="36" height="37" viewBox="0 0 36 37" fill="none" xmlns="http://www.w3.org/2000/svg">
<path d="M35.5129 18.4996C35.5129 8.78738 27.6396 0.914062 17.9274 0.914062C8.21513 0.914062 0.341797 8.78738 0.341797 18.4996C0.341797 28.2118 8.21513 36.0852 17.9274 36.0852C27.6396 36.0852 35.5129 28.2118 35.5129 18.4996Z" fill="#FF0209"/>
<path d="M25.391 26.2883C24.8671 26.3452 24.3308 26.355 23.8167 26.3538C19.8068 26.3501 15.7969 26.3464 11.7882 26.3439C10.5265 26.3439 9.15241 26.3031 8.17743 25.5012C7.07887 24.5954 6.85027 23.0248 6.7613 21.6037C6.63772 19.6562 6.62784 17.7025 6.72917 15.7538C6.78477 14.6836 6.88239 13.5876 7.34332 12.6188C7.67449 11.923 8.22686 11.2978 8.93369 10.9691C9.75544 10.5872 10.6155 10.6552 11.5003 10.654C13.6183 10.6515 15.7363 10.6503 17.8544 10.6478C20.0564 10.6453 22.2597 10.6441 24.4618 10.6416C25.5023 10.6416 26.6194 10.6626 27.4683 11.2644C28.5644 12.0404 28.8622 13.5171 28.9993 14.8529C29.2527 17.3133 29.2564 19.7995 29.0092 22.2599C28.9067 23.2744 28.7361 24.347 28.0676 25.1168C27.4053 25.8805 26.4229 26.1746 25.3923 26.2871L25.391 26.2883Z" fill="white"/>
<path d="M21.514 18.5019L15.5381 15.0518V21.952L21.514 18.5019Z" fill="#FF0209"/>
</svg>
