<svg width="116" height="36" viewBox="0 0 116 36" fill="none" xmlns="http://www.w3.org/2000/svg">
<path d="M6.14499 7.0762L6.3508 10.107L11.0551 10.3257L10.5847 14.6376L6.67422 14.825L7.20346 22.6364H0L0.676243 0.764648H12.6428L13.0544 7.0762H6.14499Z" fill="#303754"/>
<path d="M19.9333 16.1998L27.225 14.9188L26.6957 22.6364H14.2L13.5237 0.764648H21.1388L19.9333 16.1998Z" fill="#303754"/>
<path d="M41.0891 16.6373L41.5007 22.6364H27.5642L28.2405 0.764648H39.9718L40.3835 6.76375H33.621L33.7092 9.82579L39.031 9.54458L39.325 14.0439L33.8268 14.3251L33.8857 17.1684L41.0891 16.6373Z" fill="#303754"/>
<path d="M41.6252 0.764648H48.6523L50.7692 7.35741L52.3275 0.764648H59.1487L54.1504 11.2943L58.5607 22.6364H52.0335L49.9166 17.2309L47.8584 22.6364H42.6249L46.3001 12.3567L41.6252 0.764648Z" fill="#303754"/>
<path d="M66.6669 22.6364H59.4928L60.1691 0.764648H65.1674L66.6669 22.6364Z" fill="#303754"/>
<path d="M80.18 6.76375H74.2115L74.0644 10.357L78.1807 10.1382L78.6511 15.3562L73.7998 15.5437L73.4764 22.6364H68.0077L67.3314 0.764648H80.5917L80.18 6.76375Z" fill="#303754"/>
<path d="M81.6175 0.764648H87.2039L86.7922 16.1686L91.2025 17.3247L92.0846 0.764648H96.6419L98.112 22.6364H80.9413L81.6175 0.764648Z" fill="#303754"/>
<path d="M109.061 0.764648H116L114.53 22.6364H110.678L105.445 9.01341L105.092 9.16964L104.739 22.6364H99.5056L98.8293 0.764648H106.209L109.973 13.2315L109.061 0.764648Z" fill="#303754"/>
<path d="M4.78133 27.6451V28.6836H1.17477V30.707H4.12651V31.7455H1.17477V34.1008H4.78133V35.1392H0.1875V27.6451H4.78133Z" fill="#303754"/>
<path d="M5.8917 27.6451H6.97971L8.82329 30.5357L10.6568 27.6451H11.765L9.37737 31.3922L11.765 35.1392H10.6669L8.83336 32.2594L6.98979 35.1499L5.90177 35.1392L8.27928 31.3922L5.8917 27.6451Z" fill="#303754"/>
<path d="M17.1719 29.8291C17.1719 31.7134 15.157 32.1202 13.9179 32.163V35.1392H12.9407V27.6451H13.6157C14.8246 27.6451 17.1719 27.7629 17.1719 29.8291ZM13.9179 28.6729V31.1352C14.875 31.1352 16.2048 30.9104 16.2048 29.9041C16.2048 28.9298 14.9757 28.6729 13.9179 28.6729Z" fill="#303754"/>
<path d="M22.3639 34.1008V35.1392H17.6592V27.6451H18.6264V34.1008H22.3639Z" fill="#303754"/>
<path d="M29.288 31.3601C29.288 34.0794 27.797 35.2356 26.3363 35.2356C24.7042 35.2356 23.3946 33.6939 23.3946 31.3601C23.3946 28.8977 24.6841 27.5381 26.3564 27.5381C28.0992 27.5381 29.288 29.1118 29.288 31.3601ZM24.4222 31.3601C24.4222 32.9767 25.2583 34.1222 26.3363 34.1222C27.384 34.1222 28.2705 33.0195 28.2705 31.3601C28.2705 30.1182 27.656 28.5658 26.3564 28.5658C25.0669 28.5658 24.4222 29.9683 24.4222 31.3601Z" fill="#303754"/>
<path d="M31.1725 28.6729V31.1352C32.1195 31.1352 33.4493 30.9104 33.4493 29.9041C33.4493 28.9298 32.2202 28.6729 31.1725 28.6729ZM33.7515 35.1392L31.787 32.1202C31.5654 32.1416 31.3538 32.163 31.1624 32.163V35.1392H30.1852V27.6451H30.8602C32.0792 27.6451 34.4164 27.7629 34.4164 29.8077C34.4164 30.964 33.681 31.5742 32.8146 31.8739L34.9302 35.1392H33.7515Z" fill="#303754"/>
<path d="M40.2083 27.6451V28.6836H36.6017V30.707H39.5534V31.7455H36.6017V34.1008H40.2083V35.1392H35.6144V27.6451H40.2083Z" fill="#303754"/>
<path d="M43.9557 30.8355L48.8417 30.8462V31.8739H43.9557V30.8355Z" fill="#303754"/>
<path d="M56.8194 29.8291C56.8194 31.7134 54.8045 32.1202 53.5654 32.163V35.1392H52.5882V27.6451H53.2632C54.4721 27.6451 56.8194 27.7629 56.8194 29.8291ZM53.5654 28.6729V31.1352C54.5224 31.1352 55.8522 30.9104 55.8522 29.9041C55.8522 28.9298 54.6232 28.6729 53.5654 28.6729Z" fill="#303754"/>
<path d="M62.0114 34.1008V35.1392H57.3067V27.6451H58.2738V34.1008H62.0114Z" fill="#303754"/>
<path d="M68.9355 35.1392H67.9281L67.3035 32.7625H64.6237L64.0092 35.1392H62.9816L64.9562 27.6451H66.971L68.9355 35.1392ZM65.6916 28.6836L64.8957 31.7241H67.0315L66.2356 28.6836H65.6916Z" fill="#303754"/>
<path d="M73.0759 35.1392H72.0987V31.4778L69.6607 27.6451H70.7487L72.5923 30.5357L74.4258 27.6451H75.5239L73.0759 31.4992V35.1392Z" fill="#303754"/>
<path d="M78.7825 30.8355L83.6685 30.8462V31.8739H78.7825V30.8355Z" fill="#303754"/>
<path d="M91.9585 34.1008V35.1392H87.2538V27.6451H88.221V34.1008H91.9585Z" fill="#303754"/>
<path d="M97.6233 27.6451V28.6836H94.0168V30.707H96.9685V31.7455H94.0168V34.1008H97.6233V35.1392H93.0295V27.6451H97.6233Z" fill="#303754"/>
<path d="M104.667 35.1392H103.66L103.035 32.7625H100.356L99.7411 35.1392H98.7135L100.688 27.6451H102.703L104.667 35.1392ZM101.423 28.6836L100.628 31.7241H102.763L101.968 28.6836H101.423Z" fill="#303754"/>
<path d="M106.581 28.6729V31.1352C107.528 31.1352 108.858 30.9104 108.858 29.9041C108.858 28.9298 107.629 28.6729 106.581 28.6729ZM109.16 35.1392L107.196 32.1202C106.974 32.1416 106.763 32.163 106.571 32.163V35.1392H105.594V27.6451H106.269C107.488 27.6451 109.825 27.7629 109.825 29.8077C109.825 30.964 109.09 31.5742 108.224 31.8739L110.339 35.1392H109.16Z" fill="#303754"/>
<path d="M111.245 27.6451H113.24L114.781 34.1008H115.023V27.6451H116V35.1392H114.086L112.484 28.6836H112.222V35.1392H111.245V27.6451Z" fill="#303754"/>
</svg>
